<mxfile host="65bd71144e">
    <diagram id="HIP3nbAZw_EuaXWnEj3U" name="Page-1">
        <mxGraphModel dx="1288" dy="528" grid="1" gridSize="10" guides="1" tooltips="1" connect="1" arrows="1" fold="1" page="1" pageScale="1" pageWidth="850" pageHeight="1100" math="0" shadow="0">
            <root>
                <mxCell id="0"/>
                <mxCell id="1" parent="0"/>
                <mxCell id="2" value="Start" style="strokeWidth=2;html=1;shape=mxgraph.flowchart.terminator;whiteSpace=wrap;" parent="1" vertex="1">
                    <mxGeometry x="120" y="100" width="100" height="60" as="geometry"/>
                </mxCell>
                <mxCell id="3" value="Stop" style="strokeWidth=2;html=1;shape=mxgraph.flowchart.terminator;whiteSpace=wrap;" parent="1" vertex="1">
                    <mxGeometry x="120" y="390" width="100" height="60" as="geometry"/>
                </mxCell>
                <mxCell id="5" value="on start" style="text;html=1;align=center;verticalAlign=middle;resizable=0;points=[];autosize=1;strokeColor=none;fillColor=none;" vertex="1" parent="1">
                    <mxGeometry x="140" y="50" width="60" height="30" as="geometry"/>
                </mxCell>
                <mxCell id="6" value="clear screen&lt;br&gt;show happy face" style="shape=parallelogram;html=1;strokeWidth=2;perimeter=parallelogramPerimeter;whiteSpace=wrap;rounded=1;arcSize=12;size=0.23;" vertex="1" parent="1">
                    <mxGeometry x="95" y="180" width="150" height="70" as="geometry"/>
                </mxCell>
                <mxCell id="7" value="Set all neopixels RGB values to (0, 0, 0,)" style="rounded=1;whiteSpace=wrap;html=1;absoluteArcSize=1;arcSize=14;strokeWidth=2;" vertex="1" parent="1">
                    <mxGeometry x="120" y="270" width="100" height="100" as="geometry"/>
                </mxCell>
                <mxCell id="8" value="start" style="strokeWidth=2;html=1;shape=mxgraph.flowchart.terminator;whiteSpace=wrap;" vertex="1" parent="1">
                    <mxGeometry x="420" y="100" width="100" height="60" as="geometry"/>
                </mxCell>
                <mxCell id="9" value="stop" style="strokeWidth=2;html=1;shape=mxgraph.flowchart.terminator;whiteSpace=wrap;" vertex="1" parent="1">
                    <mxGeometry x="710" y="610" width="100" height="60" as="geometry"/>
                </mxCell>
                <mxCell id="10" value="button a" style="text;html=1;align=center;verticalAlign=middle;resizable=0;points=[];autosize=1;strokeColor=none;fillColor=none;" vertex="1" parent="1">
                    <mxGeometry x="435" y="50" width="70" height="30" as="geometry"/>
                </mxCell>
                <mxCell id="11" value="set neopixel 2 to Green" style="rounded=1;whiteSpace=wrap;html=1;absoluteArcSize=1;arcSize=14;strokeWidth=2;" vertex="1" parent="1">
                    <mxGeometry x="425" y="230" width="100" height="100" as="geometry"/>
                </mxCell>
                <mxCell id="13" value="display neopixel&amp;nbsp; 2&lt;br&gt;pause 1 second" style="shape=parallelogram;html=1;strokeWidth=2;perimeter=parallelogramPerimeter;whiteSpace=wrap;rounded=1;arcSize=12;size=0.23;" vertex="1" parent="1">
                    <mxGeometry x="385" y="340" width="170" height="60" as="geometry"/>
                </mxCell>
                <mxCell id="14" value="clear screen" style="shape=parallelogram;html=1;strokeWidth=2;perimeter=parallelogramPerimeter;whiteSpace=wrap;rounded=1;arcSize=12;size=0.23;" vertex="1" parent="1">
                    <mxGeometry x="420" y="160" width="100" height="60" as="geometry"/>
                </mxCell>
                <mxCell id="15" value="set neopixel 1 to yellow" style="rounded=1;whiteSpace=wrap;html=1;absoluteArcSize=1;arcSize=14;strokeWidth=2;" vertex="1" parent="1">
                    <mxGeometry x="420" y="640" width="100" height="100" as="geometry"/>
                </mxCell>
                <mxCell id="16" value="display neopixel&amp;nbsp; 1&lt;br&gt;pause 1 second" style="shape=parallelogram;html=1;strokeWidth=2;perimeter=parallelogramPerimeter;whiteSpace=wrap;rounded=1;arcSize=12;size=0.23;" vertex="1" parent="1">
                    <mxGeometry x="385" y="760" width="170" height="60" as="geometry"/>
                </mxCell>
                <mxCell id="17" value="set neopixel 2 to black" style="rounded=1;whiteSpace=wrap;html=1;absoluteArcSize=1;arcSize=14;strokeWidth=2;" vertex="1" parent="1">
                    <mxGeometry x="430" y="440" width="100" height="100" as="geometry"/>
                </mxCell>
                <mxCell id="18" value="display neopixel&amp;nbsp; 2&lt;br&gt;pause 1 second" style="shape=parallelogram;html=1;strokeWidth=2;perimeter=parallelogramPerimeter;whiteSpace=wrap;rounded=1;arcSize=12;size=0.23;" vertex="1" parent="1">
                    <mxGeometry x="395" y="560" width="170" height="60" as="geometry"/>
                </mxCell>
                <mxCell id="20" value="set neopixel 1 to black" style="rounded=1;whiteSpace=wrap;html=1;absoluteArcSize=1;arcSize=14;strokeWidth=2;" vertex="1" parent="1">
                    <mxGeometry x="420" y="830" width="100" height="100" as="geometry"/>
                </mxCell>
                <mxCell id="21" value="display neopixel&amp;nbsp; 1&lt;br&gt;pause 1 second" style="shape=parallelogram;html=1;strokeWidth=2;perimeter=parallelogramPerimeter;whiteSpace=wrap;rounded=1;arcSize=12;size=0.23;" vertex="1" parent="1">
                    <mxGeometry x="385" y="950" width="170" height="60" as="geometry"/>
                </mxCell>
                <mxCell id="22" value="set neopixel 0 to red" style="rounded=1;whiteSpace=wrap;html=1;absoluteArcSize=1;arcSize=14;strokeWidth=2;" vertex="1" parent="1">
                    <mxGeometry x="710" y="150" width="100" height="100" as="geometry"/>
                </mxCell>
                <mxCell id="23" value="display neopixel&amp;nbsp; 0&lt;br&gt;pause 1 second" style="shape=parallelogram;html=1;strokeWidth=2;perimeter=parallelogramPerimeter;whiteSpace=wrap;rounded=1;arcSize=12;size=0.23;" vertex="1" parent="1">
                    <mxGeometry x="675" y="270" width="170" height="60" as="geometry"/>
                </mxCell>
                <mxCell id="24" value="set neopixel 0 to black" style="rounded=1;whiteSpace=wrap;html=1;absoluteArcSize=1;arcSize=14;strokeWidth=2;" vertex="1" parent="1">
                    <mxGeometry x="710" y="350" width="100" height="100" as="geometry"/>
                </mxCell>
                <mxCell id="25" value="display neopixel&amp;nbsp; 0&lt;br&gt;pause 1 second&lt;br&gt;display happy face" style="shape=parallelogram;html=1;strokeWidth=2;perimeter=parallelogramPerimeter;whiteSpace=wrap;rounded=1;arcSize=12;size=0.23;" vertex="1" parent="1">
                    <mxGeometry x="675" y="480" width="170" height="60" as="geometry"/>
                </mxCell>
            </root>
        </mxGraphModel>
    </diagram>
</mxfile>